/* XPM */
static char *c0dc6c6de94d4a9cde5b5eef6182e8929dJZBIJm6W0bYjo1[] = {
/* columns rows colors chars-per-pixel */
"40 40 81 1 ",
"  c #2F4405",
". c #314A06",
"X c #304709",
"o c #324B0C",
"O c #36530D",
"+ c #39570F",
"@ c #37590C",
"# c #385A0E",
"$ c #334E10",
"% c #355413",
"& c #385513",
"* c #375914",
"= c #3A5C14",
"- c #355618",
"; c #385718",
": c #365B1A",
"> c #395D1A",
", c #3A600F",
"< c #3C6315",
"1 c #3F6A15",
"2 c #37601C",
"3 c #3C631B",
"4 c #3E6A1C",
"5 c #3C6521",
"6 c #3E6B22",
"7 c #3F7121",
"8 c #416615",
"9 c #416C16",
"0 c #416D17",
"q c #406719",
"w c #41651A",
"e c #436A1A",
"r c #446B19",
"t c #426D1A",
"y c #40681C",
"u c #436B1C",
"i c #426D1C",
"p c #446F1D",
"a c #437317",
"s c #427119",
"d c #42701B",
"f c #43711D",
"g c #41721D",
"h c #43731C",
"j c #43751D",
"k c #45751C",
"l c #45761E",
"z c #49751F",
"x c #467C1B",
"c c #457A1C",
"v c #457B1D",
"b c #45791E",
"n c #4A791E",
"m c #406B21",
"M c #426E21",
"N c #406C23",
"B c #417223",
"V c #427323",
"C c #447022",
"Z c #457721",
"A c #437225",
"S c #457224",
"D c #487623",
"F c #477B22",
"G c #477A26",
"H c #497823",
"J c #4A7C23",
"K c #4A7E25",
"L c #477928",
"P c #4C8024",
"I c #4D8225",
"U c #4F8525",
"Y c #4F8527",
"T c #4E8328",
"R c #508425",
"E c #528B26",
"W c #508629",
"Q c #528B2B",
"! c #528C2A",
"~ c #548D29",
"^ c #56922C",
/* pixels */
"%g55%3%r3eli3<mq5F&:K%N:>3gXe5u4<B&335>%",
"4O3C40&*33Zd&41G3BO1o%eBL1o&<3Z<=X&>mO3i",
"l3<6dKe1:13:o>%<ui**:%t>&o:%<5u%3><o13gg",
"NZpcjciu< e=41e%=l*3HC=.O:i<4+=<gS~j#8lN",
"g3&.3343idO:3333<tdg3g@Og1x#3q1ptc>313Pe",
"*<HFQ>>3B33> 0T>lU>oo%4>1=U%%OeAT%%i4A%=",
"%t6=3==3tdg>>%=g>=46%3cg X4t%3%d3+&>N+&*",
"+14m4@3%*m344%=36Cg3i4>A%34&*3>1$F>33gO3",
"*lgA3N+>3g**=%c3630i&44m%>*4<>J3%><35g<<",
"TNi=N33%i>3%N% 4iCq%%1Ci4>o3:33334&>3cp>",
"C3dt%%>o:g=:4o>3>K:oJJt;-=*qN41>q334lz5c",
"J4&1$>=<<g>i=loT<de=t3e3^><>&lit*F4g=343",
"%3:<d1a>i<#34A64046W43+<<t33j0>tH*i<*Oog",
"3o>N<3W3333Ke3&30C33<:g1gui>d3->:<>3j3C*",
">3436&1%*$3l4$1A&1=K43u3J1O>P34>%ouegB%4",
"<:6*%>36*36=7%>Tg=3$O33iP:>30>3Jj>1>N3X;",
"l>G*5%:$N363<43it3%Z%4j;3r&3353&&3::=*43",
"R*4i3:%2=Z:6u#=>>ltS33NA3<:t%N3*3&o*43;F",
"1<56g%H$>3>63<%^iiK%4;tP><g%:i<=u*:=3%%&",
"8*>c>e4=%UZ*A3o4Oli6$d>K&u5c&Ot=l3d=aC*o",
"%::=l>B33g jlKl0@1&6N5<@cB3Jcr==g<g+i<3*",
"ce36e3i3iH@>=333<g:g=N4#Pi<31l1;%>;3*o>i",
"CNU4*e$>3dd3*=0<ici&3:ptU*%P%3<$3o:=u=NA",
"mDKu%d34=%3u%Oo>3>t4$q4>i3*&gZ3K=C%=cK3i",
"P*333u:%<o33%%g>t%=<o>$N6P%:43t>:&3JlA33",
"%3tA3::g%34%34;%B>pg>%3E6%43u333z%<3:to4",
"4o43<%%*Pu0KC%<G6=>3H11=Aoo1=4T3t%0<:3D*",
">3>dln3$*<.0<0=3<13qlJi44>%tcq3;NC6BiAou",
"g%t<=<4i<,+%t8O. =3K46tO135B1.4=<3=+1:ou",
"l3gN:3o%=t>o>e%%<im3=:c&6%g>1t%u3=<+*445",
"eUlF%<:<Bc:3:3>Ou1*Jt4l3A1%iZ34><P4><3DU",
"o335H+*l34A346=d64:oO!BN333>g36%X<3*4>%*",
"j<Am1%>333gB1>A:B3%F%B>==K*N336O4%*q4<<%",
"*H6Z3%e4>>%e$t*B6r4K=i4Au+*4335go4+3333&",
"3%KAB>=WF43>*%%&geW%434B3tK::FF=3>=$dW=%",
"3*u44>*e*l>303^BeEjG%4C4>33cl<<-=<d+13%<",
"4>l 3l6:t.#q3g3Ndl>jl3 0#qii><<A:Ag0#>NZ",
"<>Nilg%o>446WK*FBu$u3%1<H<3q3=t>3oA:g3S3",
">:ue%4o3633=:*O:33&>Xou>m3=%4=P4o%5>gH3<",
"><Z533%3%N%%&l1434Z%=154*4=*3ji3>>113E>g"
};
