/* XPM */
static char *_9e5fe22785a47c7b705c0878436fa89sjlS6cFv4FCvRuTM[] = {
/* columns rows colors chars-per-pixel */
"40 40 81 1 ",
"  c #332C24",
". c #392E25",
"X c #3D3126",
"o c #3C332A",
"O c #41362D",
"+ c #46392D",
"@ c #463C33",
"# c #4B3E34",
"$ c #503F36",
"% c #4D4137",
"& c #4E433A",
"* c #504236",
"= c #54443A",
"- c #58463C",
"; c #57483E",
": c #5B4A3E",
"> c #604D3E",
", c #564C44",
"< c #5D4D43",
"1 c #5F5146",
"2 c #5E5249",
"3 c #604F43",
"4 c #625145",
"5 c #65554A",
"6 c #69574A",
"7 c #67584D",
"8 c #6B5A4D",
"9 c #715D4E",
"0 c #6D5D51",
"q c #715F53",
"w c #6E6056",
"e c #736255",
"r c #796656",
"t c #7C6857",
"y c #756559",
"u c #79675A",
"i c #77695E",
"p c #78685B",
"a c #7A685A",
"s c #7D695A",
"d c #78685C",
"f c #79685D",
"g c #7C6A5C",
"h c #7B6C5F",
"j c #7D6C5D",
"k c #766960",
"l c #796A60",
"z c #7D6B60",
"x c #7F6E62",
"c c #7D6E64",
"v c #7E7066",
"b c #836D5B",
"n c #806E5F",
"m c #86705F",
"M c #816F61",
"N c #827162",
"B c #857363",
"V c #827164",
"C c #837366",
"Z c #867567",
"A c #887567",
"S c #82746B",
"D c #867669",
"F c #84746A",
"G c #897768",
"H c #87786E",
"J c #8A7868",
"K c #8C7B6B",
"L c #88786E",
"P c #917D6C",
"I c #8F7D70",
"U c #8C7D72",
"Y c #907E70",
"T c #8E8076",
"R c #8F8178",
"E c #938175",
"W c #948376",
"Q c #918278",
"! c #92847A",
"~ c #94857A",
"^ c #95877C",
/* pixels */
" RQWIVND<# ye~! HIDLl88645 ^^~!!e08855c5",
"9VZJJDDDDV jxxj@xxxjzdgyyrOnajddedjdayy<",
"nMxMVVdVNx#yyyy#dddaeqyee0 yyagayysyyee<",
"yddhdMsxjaOq080%0eyye0eq00 eeyy8qyeee00-",
"eyy00q80yyo<<4<#eeeq544q85X71<458550008;",
"5555655644 -===o<<<<<<<-:: :<<<<<351<5<*",
" O#@*@##@@  X       o@@O   O&<5114<=#Oo ",
"aja666Xeydjdzjxxg84SNgNBa8e9r.GMJKxe04:6",
"uaasgs eeyyyyadddeyljMbNBsjga4xVVVVNeeey",
"reusss q00eeeeeereqoagungnautrdxxxxde6ee",
"8erere 588q00000008 yuaeyyete6ydddrd0866",
"80r<<: 4557888863<=#0eee8r4444eeyy5<9488",
"3<<:-= ####*=-***#*#3-4<<<3:<44441<<5<<<",
"IQIHWIQ7X       Ii75 X&,2% wGIQQIDvv0&@ ",
"xNVAGGJJDx4 55dxgdye0qyjjx<xVZDDJLLLJDDx",
"dNxVVVVZVxx ddedye8780eqyd4dxVVVDDxDZxVx",
"yddjNxgBxgdoeyee00075880ee4udMxxxVVgxxxy",
"00ydnddjdyu 08000884<<585q<eeydyjjjjedye",
"78858857554 44<<564<-$*453;88e7800yyye08",
"166644<:;-= ===-**-#% =&*= <<<455785868#",
"48nGPKG0vc55eI DDcDy6<8yyzx< e85Mx  -:4>",
"BBnBnsuyylVMDD eyajdjdjjdejy eeee08uggBB",
"nnjnsuyr8ydBMV=qryyydadaayre 6008856gjms",
"ssburyeq;eqade<00ee0yyyyeeee 688585=uaas",
"e5448r88*09e74-86068eqe0e000 66645<=89eu",
"43<:<:66 48<<<O54:=<<<<<4357 41<<;; 4444",
"oo+ooo     +   ooooooooooooo  oOO   Oo.o",
"Vg5D58reyxVKKKnd5uxVVVe0II y0yyyVIEII0SD",
"xddy5dxVGDJKZLDZeddBdBxuxd DJLYIIIKKLGDV",
"ndye4edxNMDJMGZduyydddyday VZDJLLLJMDMgB",
"yey0<yjdxxMgVVV78eeyyyyeye gxVZDxxxxjNsd",
"5408oeeyaeMjMj8*<708776500 78880NNNx0800",
"3<<=.6378456544  664144<<< 345457477755<",
"      DQTIk#  X 0III    ,&        o2&#o ",
"VVjxd<0eee0eeIc5VNx7<8eydzxxvVx800NVVVZV",
"xdxda<00qyuyyyxxxdee70reeyddddddyeyBNaax",
"leeyy#8500eeeeaayyye4486weyyyqy0eadeuddd",
"syyeq 57758080e0e8e0<457q00qqeq00800yyeq",
"ee0<- #454888450rq<<:<<4578<:---*55558e0",
"<<<;- <-*##=5 ;;-;:=##&**==---==: 1<<41<"
};
