/* XPM */
static char *result[] = {
/* columns rows colors chars-per-pixel */
"100 100 71 1 ",
"  c #3A3735",
". c #3A3836",
"X c #3E3D3B",
"o c #413E3C",
"O c #44413E",
"+ c #4A433D",
"@ c #3F4040",
"# c #444343",
"$ c #4A4643",
"% c #4D4945",
"& c #474748",
"* c #474848",
"= c #4C4C4C",
"- c #514B46",
"; c #524E4B",
": c #4F504F",
"> c #54514E",
", c #5A544F",
"< c #4F4F50",
"1 c #504F50",
"2 c #4F5050",
"3 c #525252",
"4 c #595654",
"5 c #5C5956",
"6 c #575758",
"7 c #585758",
"8 c #5E5C5A",
"9 c #625C56",
"0 c #615E5C",
"q c #63605E",
"w c #69635E",
"e c #5E5F60",
"r c #605F60",
"t c #656463",
"y c #696665",
"u c #6A6867",
"i c #676768",
"p c #686768",
"a c #676868",
"s c #6C6B6B",
"d c #716B67",
"f c #706F6E",
"g c #72706F",
"h c #6F6F70",
"j c #706F70",
"k c #6F7071",
"l c #747373",
"z c #787776",
"x c #797877",
"c c #767778",
"v c #787778",
"b c #777879",
"n c #7B7B7B",
"m c #817E7D",
"M c #81807F",
"N c #7F7F80",
"B c #807F80",
"V c #7F8081",
"C c #838383",
"Z c #898787",
"A c #898887",
"S c #868788",
"D c #878888",
"F c #8B8B8B",
"G c #918F8F",
"H c #8E8F90",
"J c #8F9091",
"K c #929393",
"L c #989695",
"P c #969799",
"I c gray62",
/* pixels */
"====&=====OoXoo.oOX...      .X#&=3=#OOX#$&&==========<=#OXoooX.oO=32=&OXOO#==2=&##OOOooOooXoo#&$=2=3",
"23gstgnzzs9>;-+++%%+---++++++O,;===;%-%>3580ttqyut8wyyy8>%%%%+++o=>=34%%+%38islt54%$+%O$&++O+-3>803=",
";fClkugggfgyygdyw8wwuzlfsfguuwsw&*30044880t85--5ysyyuttsgsuy0ffyt3=3zwuq85888tssfgsuutttttq5483588t=",
":zngzlzutuufttuzbgt04uwugzxglgsf&$5yustu85%545t-8tty0;58usllyflll=&=zstukst88qtyttullssussuyy5yty8t=",
"=zuflzlfwtufuq0glffu84glsqtugsll##4u0ttr88rtyy8e38puisyiussltussz6#=lyqhsus8338yu8rrt8stilats8tasst=",
"=lyyylsttwxgzgtuusfugtggfyt5qubn#$5fyq8qtyy8atr888yupt558ussssuul3&=luu0sa58838tttiytyytyklshettau8&",
"=gf5uttquugggllguuhslufsuguuq8uz&#4lgsiyuuartuutretyy4858pukttyys8&;uuhau83t88yyttuay6888sslhitsite&",
"=ffwqt0wtudgysgusklclullyglgztus##4gsistuyqytit808ytytyyq8su0yusu3&=guusttuu08uittytatssy6tyaussyle&",
"=gzftffttqulxls0llllltllsggksass##5suiyassa888ettr08tuyyytiyisili3&=syust0ttrriqtuutusuhs8833yyiizr&",
"%fzluluutuksgstlbblslszklbbcluzx&#5gylykshhsttsi8tyyyua8tayyuskka4&=fysliqat08qy0ssssaiytttyttr88si*",
"&uzlllllllzyylxncsklt8ucnbklnlNl##5skshuttluuhsya5rushlht8805ssus3&=ftytkqusai0susushrsuasyshsie3ss=",
"%gxzlzclllysffxnnxzlyzzzlblkqlnn*$5ghlhsssyhshssayasu3ukue6yzugsi4#=lspsksiiatsustttatyassksstss6ys=",
"=zxulclulfpulyuugutslialnblssgnb&#0uusiyslslhshiaaus8it88t5tyttyy<#=ly8ruassaqiuuqayisssttshhsihaal<",
"=xnllllslsfyffyusuususlnbllsqsMM*#0llssjksshuhssyryyyht83ttyut0sc6&=zaraiuksiqiutysshskhskskcshslul2",
"=zKCCCnCmnCnxBCCCSCnbCnVCVVNCSHH==tCxbbbbnklbcbcnchytcncsyklblxzn6==nnknnblksnllslxnncccksklcclNblu2",
"=1llllllllhhkshllslkksklklcblkcr:2=ahshssssasasaaasasaahassskhsst=328hshskkassssusushhahkahsshhasr:=",
"==#@@#@@O@@@O@#&*=&##@#@###@##**23==&&#$&##&$&&&===*&$#######&##&=;==&###&#&###*&&===&$##########*==",
"3332=&##OOXoXo#=3=&$#$&%=3332333333333=&#OOOOoO#=22=#OXXooO%2=*&O#$&#%3333=#OOOOO==3=Ooooo#O&=;>3635",
"HFCCmlgdsq00w0w;==sguuzzbnzslVNNCCCxzflzutw4544-$&==9w000wq0fnzxllulxxzCzlsw55q554===w000qgzznCZCCDA",
"xBnzdy0wwwwuytg5&=mzlhkkkq958tyslbxguqtugsfut9tt3&=0dsfsllgyyhzzznbhclilwwtusywuuy%&9llzlflxxzgfuitu",
"szztufufuffwjsu6#3nstsiatqq0;448ylsssutywysslyus5#&0u8qlsyayu8ulzkht855stitksslklh=#tzlglszbyututtqu",
"8glfdgzgfllzzls8@=Cluih8q4qt6;r88;tylsszutsyyuhu3#$0zljklskt3u33lu588t0ysyugulslss=@qxzlfzxudff9tfus",
"ugz0fglfflxlpus8#=bussyytuisyq538t8ysfsauslsjshs8&#0fslzlhyst5wt88uuuyutqskgllllll&@wClllzssy00550ss",
"kysgudfzllsluss3#=lyyaiuuuisui5888itlssssssshlpu3&$0luulhhhuuuy08uslsuuuwuggglbssl&@tCkzcutututgutlb",
"lyqlssfnzslzsus3#=zushyhstyuiata88uttsklshjsslyh8#&0bhskh8yykhttyssuxlulsgsy8yttsl&@unlllwuffgflfgtt",
"itulgu9utdfzllx6@=nlsst84ttttsur513q5uut08sllsuh3#&0lltttttskarilp800tujsqtyyysslz*@snluttuzzzlfuuut",
"yqqgguq8uzfzkkz6#=xstt5t8ttytyyt0334-00tyttssuss8#&wlsutytthhiysfr8t0ptyuwrsslhuyl&OyCluttgnnzflflut",
"kuyzusuqyzbxllk6#3xl80qusuuutyslsy08>=5lssiituuu3#=uxssyyatshhstuufltt08ussszszslk*@uCuttfuzgxzgzluu",
"ya8ssuzt0tzxncz6#<ziy80wut8i8ssttuyr5583shtyypyh6#&yzyulhuihlpittytuuy8syhltyullcl&Xuzrffy05tflxzlcl",
"sltyllglzuulxxne#3xsyqttiyui887880yf008t8uyupysl8&&yflzhkhlytlt40syujsstkyuljsshus*Olxyfftftyfulxxcx",
"fxltgznzVguylnFi&3Cgtfslllkyyqyuytpllyt05wgllzcbt==fblxcbzlcyftucxlsulllclccclscNN=&fCzzfuxglxbCCczx",
"CHFcCFGFHCCFCSP8==nzugnCnVnnnxnnNbbNBnxzgtgnnBCCe==yFVDCSCCCBnMZCDCCCCCCCCSCCSNSFb==8KGFZZFFFFFFHDFF",
"33333333223=<3*=3:=3>333333;1;133333333333=%2632:23=26233633236236333332333<1134<&;1=&31>2222<133333",
"=%###@#X#X#####===*###########&&23===&&&*#*#$***====*&&#&##&&#&*==2<*#@O@@@@@o@@##&&&@@@@X@X@@XXX#&=",
"<*;;>7443;;>$+$%%3taus4%OO+Oo++o<3=%%+$$%:6assstt565thsaskssat886=3<=0uy43;;45ty85-%+++oO+%-%%+%3%#=",
"&;ssuflllyzusuutuzsusttw0fd54l03&=3tsq4885re8acssklluussassaalkyn8=*CzyzxxuCnBfysuds9twyww0ylznmfu=#",
"&tgfsshjsuwttyliyasasuufdutshsss&*8tqusyat8asr8yusssatuyut8tttasse&3Cf0txnzfdyudgufznzzzzky0yllytnt#",
"&tstsyhsgflulsytuuaalsusfzlulslh$&8t3wuissetir8hlsary7ryuayyttusls#2Zxlpluy00yttudttflzzxufsuuuudnt@",
"&ugssysulllzlytiayaysssglsuuhlus##8i83asterrrttsksatarttyaaahryrlh#;FMzuuytdyuwpffjjfnllgsxlzfusult@",
"%gzfbl8flkslslzs43tuuwlzsufssyht&&5s838ssrt4ts8tuyksat8stytttyusst#;Zlft0znfsfzsslxjxyflbznzszlgyf8#",
"%q50usayssljjsssst88hizsulhlchks#&5stte3t5888uttsaast;8tyytyaaysh8#3Fbxlfffjlxxnuscxlznzxzllgfff0t8@",
"$8t888skslfllxcutytt8sllllllsccl&#5usatey78rrr8yssay8ittt8tayhi8l8#3Zxuffsfssfllxxljtwuut9tuguufuy4@",
"#8uut8tsuzpdfzusttyt5islzzzlscll#$5shshyie88r36tytt88ytt88ttishes8#3muwudydssuxlNny8yt000puflllllj8@",
"#wly8%580ujfjlhxks7rr50ssljfbzbz*&8bi88t8ttyt88885tyuyaaatyatrsau8&;nfuzlfflxlljlsuuwwtguzlsszlhml5@",
"#wtut88t5uuyhlslhhyiut8880usplbN=#qky8yitiett38538tahausstyyttyau8#3CxjjudlxxxhfsslssluulzllllzcNv7@",
"#0yuytt88t50szsckylksiy0w88w8scb=#8kusslipietty88qyshsssisat6868y0#=Amnyujvxlzssufjsllzfuzlcclxnbx0@",
"&0lsspi55;u8sxnblhklljytw0ulst8l2*tgtsasyhut78e8ay8thsahstaysha8;0&1GCljjsxxcyfffllytlzlzlkxzCnnNve#",
"=wCzblssj8ylyyxbczzllulsllsjzlNN==iztyhkslllsttiuksutlssksashuuyu0&;LZxnCNCNvBnNnmxxBCnCNznNnNxCCSt&",
"=;sllslkkskxzklulgzlkssxbzclxxct=23slsklkllkksslshlkuiulsstssllky3==snNNnNNbnnvvxbbbcclzzzbcbnNnNj1<",
"====%%=======<2==:32===22<=<==3=23==322:2223223336633==2<<=<=323;=3<=3;=<==<======22===%&*=%======&=",
"ooX o   ...o&%&*::=:32======$&&###OO##&&==2223===22===<2<<<=&#&&&&$&==&#o@@XoXXX##<2=XXX.Xo..XX.o.XX",
"++o+-+++$+-4sgt=:=rslzlkhuy8445>-%%-=8ttyssklkyt2223uyslcllst45884488yq>434-+%%$=%==%445085,>;-,,-+%",
"ddu4ufldgsguzlFr*2Nlllzyt80t85t8sfusaryzlhskgusfi23lVkllltuyzgyyt0tyulyyyfufufssgs=#wFCCxnnmnllnlfgg",
"Cnnzzyylnbbuluzk@3bu448r80ty8yutllhfahkkkklytslzs<=lxbuuyyuq5,uuillsssllllysfckbxC=#znNxlttfbznnllxm",
"znxnzftf0wykszxt@>zw5q5ttutypssssyslkksisshttssbc=<lbssyfyastyyyypsuassyjzfssllusl=@gmlfgsuggzzllmxl",
"nnzgzfzlzkkblznt@:Nsi8tttttsjpputhsassssai888q8aa==hlt850uyuyqqyslhhuyslujsjftllkx=@lgtys9w455tlgmzz",
"nxnnxbzczlslbluq@3zt8usyuaukksssyhhyshkat888qyyyt=*tsq8wttyyy0tplkshsakcssllkslllV<@sfq50suwq>45ffzz",
"xzxnbxbzlllsyus8O:llksssksurhsksahashtayyyysauusi=*5utuuutyfsfsusaiykaschlllhuuy8s=Xunuufsynsfu090dz",
"lzxznnbxbxluttt3@=sskatusuutsshhissassy8u8tyystyy==wttfuwuljsyshkhytkhhnlczls8>wwu=#unuzlzlzftu8tyru",
"wfbznxnzbbkgzzl5O=kqw8ttrrahtakhiakrisautsytqr55t==stsutysysklhulsssuy8ushuyt8>qtt&otCuudffftfgq0dud",
"u0zzMnVxlyktwgn5@=gsrsuksitssuihituts8q8tt8q8ttr8&=yf0tlktlu8skh3slt0t5t08ufssusst&Xdmtdluulxlytdytu",
"5uuznnnlnnnknzz8@%zlsthuiskgisskasuatr8yt48putss6&=sflutyllzzskhyqq8ypp08550qugslz&#ytfflxnzfsjsxjdu",
"uuqzznnnnzlznNc7@=bkasthttslihsahiyyt0uiuq0suuhkt==luu088slscsuuytssypt;0855sftsll&o0fugllxzlfdlnzxf",
"xk8ytbCnnblxnVN8O=zksusytyyklkssatysusluut0ussula=:utytytuhllkt8sssslst0w088tlslsl&#wxsfzzzzxgufllnn",
"CCDkxlCFFCFCCFHi&=CblbbbbxhlkbbltsllsbbzlzbllnnVa2=unknnnsyslfzxllVVchsxknxtynzbCV**tGnbxDVCSSCNCFCD",
"lkklblszbbbncch&<<elksshhhsht88868yyqisskkksssha22==ukskshhkllsshhhkssllkkkssssks822*sbzlzllllkcllzl",
"**##@##@@@##@#&=31=&##&&##&#&*#*===####@#######$====###@#oOo@###&&==&######@#####=22=##@@X@@@@@@##&&",
"2==2<3333323333631<&$&%===<3333=23==32=$#oX@OoOO@@ooXXXX.oooXXX##=<<===*#OO$&&#&##&&#OO#&=&%&&##O&=;",
"=3540ullxllnnCluttllyyujkcNbbbnx==8IZzmffywydyfdy999,w990099w09wu==:lxdftwwqwu0wfguiggusfuy0ulldtt3=",
"=9088y830wttsssuuuupsfshlsksh8yn:#kFmmzwlgfggd,sgzlfunwdzxxfnldfn8#2nstwkllksywtgxlsiklzz0y09tjlcs0=",
"=0su8tt3884354sulhskllssssitt4qs:#gnlgdtffffufwgdyznxbxznxnnmzfjlq@3zuyuiqikkttsusyksulsuftss0ysszt*",
"&wshttyutt5i55w5sshskhkksity5twy3#t9wdgzyzzfgfzzzfjxbClbbbxbmNnmzt@>xutsizlsslskutsyllsssjuyr08tyst&",
"&wsssiiayas3558=5qqqqt44rttayskn3#gsgzgzsuszzfpzzzuulmnluuuutnnnCt@2nlslflkustiaythithlzfzlssuttsls=",
"=tlshaiyss55538te854t4084>08tsgn:@sguggxlgkzlfzxxxljsmffzfdt80ufnt@2nsulsy0tyulshieryuksssllhhsiklk=",
"=yutiusiuu5888eyr>:>48qq86r888yb:#sMgzgmzlsuzszxxNnxlyfgxjsu880lbi#2zfutuuptesssstrtttssl0sslhhsyll=",
"=uziksst0ttattttrqq035aatrtqtwis>OlnzgzgnnnuszBnNbzluguglflszhulns@3nftytytuyutttssiist58w5448etsll3",
"<hjshaituuyttt88qqyy88tiiertrtsl>@lCzdgdzlnsuscllxxjdfjllnxlxstsxs@3xj445iisuyyishkaswt48s885;;30fj=",
"=hllhu8yslssuys70rsiaseqqa55qssl3@kzlzzltgfutwuuyrr0dzzldnncfssins@3lstu8isslsussshiutqt00qt8754%8u=",
"=illussttyshhhi845rwqt004q5q5ssl2#gzglfgzzzfunlu0szxnrxzxnxcxbssFk@<gyl0strtpskp88788>tuy3yyy8056ss=",
"=8tassi8uusssssu060tatqia8ryatib:OzAgxgzlgfgjufgznxlxfnnNbNnbbclSl#<zgssyyu00u0ssi7tqt0uy0yfss0888t<",
":tqqtgbtilkklsulssskiushituhuisx=&lCmflglnmCVxxVxbbVCnCzlzbnVCxbDz&=Mnflkskssgskkstasgllfyflsllsyst<",
"=8bkybnnxxznnnnnnnnncbNNbbNnnbxs==0LLAFFFFHKJFFKFFHJKKKFDDFHJKJVn8==mCBnCNNVNCMVVnlugCCMnxnNmNNCnNe=",
"3=263:233326333333232333333<232<;3=&332<<=;<<<=3333333=3:3233333==22=3333333333333=&=63332333:323==3",
"==#$#&###&#&#&%=2:=#############&&&OXXX@@@@XXX@#===*&@##o@#@@#O##==%&&&#########*=2==&&#&&####&##&==",
"6q88qtrsksi83;$&2:O++%+++-%%35pzgd4;--++o+O++o+O&==&%+$+O%%;84548yy358>>=%%+++$%%==3=sy84>85>%=>3-;;",
"ky>540klnclslxw&**dzs9940uts0ncxmly,9ly0095w9,9q=&&4uluut0tzgyqtslgsgtlny09t004quw=*ylglx03tw555s88q",
"ustutrt8qglssul3#%zlwguffwlsuihljffufflljllznxgf8&=tszikzhs0siskailzjsfuuuttssatys=&snusu0yyuuyyttaa",
"ussusssq5sssusz6#=nlulxlsshsc8tsfdfxxllzlfzxzlxl5O=usslccluysyaitillulculsufhsutts=#hnluyysusuyytttt",
"klllkusu8atksgz3#%mdtyllsyspu8tffllmflxuuzblzllx8@&sslullsyislhaatyslblulszsssauuh=#tzsusyuhsptsssit",
"ttt58ksttts4qub6#%lfzNllsulksu8tutlxxxljzclNbNlxr#=fljhll4qslyls88tklkslft0sstukal=#t4zljujsjptfchut",
"uiuurr88y85t8tx6#&zglyttulfqtt8yuflslfjBccnbbxnnt#&sjspjytyt8yis8issssgutyiczlsssh=#e50uslllluushhht",
"iqysasi8qwttuuttO&zdusfjugusuy03ffjxzlxncccNbbbxt#=szljttsssususht88qsgisjslzllklb=#088qtslllhhjlkay",
"ssksyit8tyyspst8#&fducjussyujyt5yllmzlfzcly88uufy$=fuylsuszllljs8-;48sftlllllcclcb=&t0558yylcklhlssy",
"glksauyr88ypthc8#&gzllulzlksysy05tjnzzuttttfw0yyt#&tf587yslshu5;>8>>858lllzllkkkhl=#0f>8tt85tlllkyyh",
"gktgistriyyyuss0O%mgzlsccllhtsus55qjlutgzftuutli8#&tltu80uyty8505855845lllccllzllV&#0u88004%&tslstyg",
"gsisslkuustyssrt#-glxxlzxxbzbsshty8tjlgxluflljslt#&ylstq8558t540tyyq4500rhllhcstlb=#5ly5tuyt878sytug",
"klqqkyutatsuust8#=guu0jxxzhzclyils8ytxxxjlxcnBzba*<sjllss8tltuttgut0i8uuaitkgliu8u=#0liy8>t8t88>4lll",
"gllulbbllkzzxbV6&&mmzmlssuusxNxcllzlsszNnnCBnnCSs=<hCxhzcllslbxbzllbksclcswlxxbzzb==txblsllshat8y8lc",
"alzkzccblucclca<<=tlzlllclcllcccbNnxlbcczlnNNNCc3=<3zbclllljhjhhhlkllcccsy8tkczbct=2=ubllllklkkysy88",
"=222=<2:===2<<==<<&*=&=&&&&====<<233<<<<==<<<<<<=<<=<3=<<=====<==<<322<<=&&&=<<23=23==3<<<===22===&$"
};
